<?xml version="1.0" encoding="utf-8"?>
<!-- Generator: Adobe Illustrator 25.4.1, SVG Export Plug-In . SVG Version: 6.00 Build 0)  -->
<svg version="1.1" id="OnBuy_Logo" xmlns="http://www.w3.org/2000/svg" xmlns:xlink="http://www.w3.org/1999/xlink" x="0px" y="0px"
	 viewBox="0 0 1180.05 280.28" style="enable-background:new 0 0 1180.05 280.28;" xml:space="preserve">
<style type="text/css">
	.st0{fill:#FFFFFF;}
</style>
<g>
	<path class="st0" d="M116.11,11.34c59.4,0,102.8,44,102.8,100.4c0,57.7-43.4,102.8-102.8,102.8s-102.8-45.1-102.8-102.8
		C13.21,55.34,56.71,11.34,116.11,11.34z M116.11,170.54c29.4,0,53.1-25.3,53.1-58.8c0-32.2-23.6-56.4-53.1-56.4
		c-29.4,0-53.1,24.2-53.1,56.4C63.01,145.24,86.61,170.54,116.11,170.54z"/>
</g>
<g>
	<path class="st0" d="M225.21,69.64h45.6v12.4c0,4.7-0.5,8.8-0.5,8.8h0.5c6.6-11,20.1-24.5,45.1-24.5c28.6,0,50.9,13.2,50.9,53.1
		v91.8h-47.6v-83c0-13.2-5.2-18.7-15.7-18.7c-14.8,0-23.9,8.2-28,20.3c-1.9,5.5-2.8,11.8-2.8,18.7v62.7h-47.6V69.64H225.21z"/>
</g>
<g>
	<path class="st0" d="M372.71,14.64h72.3c39.3,0,66.8,17.6,66.8,51.4c0,16.5-8,33.3-22.8,41.8v0.5c22.5,6.9,30.8,26.9,30.8,44.3
		c0,42.9-35.7,58.6-74.8,58.6h-72.3L372.71,14.64L372.71,14.64z M445.61,90.84c12.1,0,17.3-8.8,17.3-18.1c0-9.1-5.2-16.8-18.1-16.8
		h-23.9v34.9C420.91,90.84,445.61,90.84,445.61,90.84z M449.71,170.04c14,0,20.9-9.6,20.9-20.6s-6.6-20.1-20.6-20.1h-29.1v40.7
		L449.71,170.04L449.71,170.04z"/>
</g>
<g>
	<path class="st0" d="M522.31,69.64h47.6v83c0,13.2,5.2,18.7,15.1,18.7c20.4,0,30-17.9,30-39v-62.7h47.6v141.6h-45.6v-12.4
		c0-4.7,0.5-8.8,0.5-8.8h-0.5c-7.7,15.1-25.3,24.5-44.3,24.5c-28,0-50.3-13.2-50.3-53.1L522.31,69.64L522.31,69.64z"/>
</g>
<g>
	<path class="st0" d="M685.01,224.14c0,0,7.7,5.2,14.6,5.2c7.7,0,17.9-2.2,22.8-14.3l2.8-6.6l-60.3-138.8h53.9l20.9,65.2
		c2.5,7.7,5.2,22,5.2,22h0.5c0,0,2.8-13.5,4.7-21.2l17.9-66h52l-58,156.7c-11.8,31.6-36.6,42.6-59.1,42.6c-18.7,0-33-9.9-33-9.9
		L685.01,224.14z"/>
</g>
<g>
	<path class="st0" d="M1162.22,74.15c-3.23-3.04-7.59-4.51-12.28-4.51H850.42c-7.26,0-14.1,4.55-16.6,11.31l-45.98,124.17
		c-1.99,5.37-1.12,11.39,2.15,16.09s8.54,7.5,14.26,7.5h345.57c9.65,0,17.5-7.85,17.5-17.5l0.03-124.98
		C1167.35,81.56,1165.53,77.28,1162.22,74.15z M862.54,188.06h-22.3v-22.3h22.3V188.06z M907.99,189.74
		c-25.76,0-40.18-17.92-40.18-37.8c0-19.32,14.28-37.66,40.18-37.66c19.6,0,28.7,10.92,28.7,10.92l-10.22,16.24c0,0-7-7-16.94-7
		c-11.48,0-17.22,8.68-17.22,17.22c0,8.54,5.88,17.92,18.06,17.92c10.08,0,19.74-8.68,19.74-8.68l8.82,16.94
		C938.94,177.84,928.15,189.74,907.99,189.74z M977.15,189.74c-22.68,0-40.88-14.98-40.88-37.52c0-22.68,18.2-37.94,40.74-37.94
		c22.82,0,41.02,15.26,41.02,37.94C1018.03,174.76,999.84,189.74,977.15,189.74z M1135.35,188.06h-24.22v-42.7
		c0-5.32-0.98-9.1-5.6-9.1c-7.7,0-11.76,5.6-13.3,13.58c-0.56,2.52-0.56,5.46-0.56,8.4v29.82h-24.22v-42.7c0-5.32-0.98-9.1-5.6-9.1
		c-7.56,0-11.48,5.32-13.16,13.02c-0.56,2.66-0.7,5.88-0.7,8.96v29.82h-24.22v-72.1h23.24v6.3c0,2.38-0.28,4.48-0.28,4.48h0.28
		c3.36-5.04,10.08-12.46,21.42-12.46c9.1,0,16.38,4.06,20.16,12.18h0.28c3.78-6.02,12.32-12.18,23.1-12.18
		c13.16,0,23.38,7.14,23.38,27.02L1135.35,188.06L1135.35,188.06z"/>
	<path class="st0" d="M977.15,134.44c-8.82,0-16.38,6.86-16.38,17.78c0,10.78,7.56,17.36,16.38,17.36s16.38-6.58,16.38-17.36
		C993.53,141.3,985.98,134.44,977.15,134.44z"/>
</g>
</svg>
